<?xml version="1.0" standalone="no"?>
<!DOCTYPE svg PUBLIC "-//W3C//DTD SVG 20010904//EN"
 "http://www.w3.org/TR/2001/REC-SVG-20010904/DTD/svg10.dtd">
<svg version="1.0" xmlns="http://www.w3.org/2000/svg"
 width="1347.000000pt" height="158.000000pt" viewBox="0 0 1347.000000 158.000000"
 preserveAspectRatio="xMidYMid meet">

<g transform="translate(0.000000,158.000000) scale(0.100000,-0.100000)"
fill="#000000" stroke="none">
<path fill="#293c45" d="M506 1497 c-154 -282 -295 -661 -406 -1091 -44 -171 -90 -373 -90
-397 0 -6 93 -8 221 -7 l221 3 28 135 c55 266 141 556 236 792 64 160 56 156
104 53 44 -94 130 -337 130 -367 0 -16 -13 -18 -135 -18 l-134 0 -10 -37 c-22
-84 -71 -282 -71 -287 0 -3 99 -6 219 -6 141 0 222 -4 226 -10 6 -9 44 -228
45 -252 0 -5 101 -8 225 -8 170 0 225 3 225 12 0 7 -18 102 -41 212 -91 451
-260 930 -437 1238 l-67 118 -222 0 -222 0 -45 -83z"/>
<path fill="#293c45" d="M1504 1538 c56 -355 222 -824 468 -1320 l107 -218 165 0 165 0 56
105 c166 310 343 754 440 1104 29 104 85 346 85 366 0 3 -105 5 -234 5 l-233
0 -7 -52 c-21 -165 -123 -530 -208 -742 -68 -172 -56 -172 -127 9 -77 198
-122 348 -176 590 l-42 190 -233 3 -233 2 7 -42z"/>
<path fill="#293c45" d="M3070 790 l0 -790 225 0 225 0 0 790 0 790 -225 0 -225 0 0 -790z"/>
<path fill="#293c45" d="M4040 1360 l0 -220 -215 0 -215 0 0 -175 0 -175 215 0 215 0 0 -395
0 -395 225 0 225 0 0 790 0 790 -225 0 -225 0 0 -220z"/>
<path d="M8858 1479 c-17 -9 -18 -53 -18 -689 l0 -680 23 -5 c28 -6 100 -9
154 -7 75 4 73 -4 73 336 l0 303 48 48 c83 85 164 104 233 54 57 -40 62 -74
67 -416 4 -307 4 -312 25 -319 28 -9 167 -8 196 1 l22 7 -3 366 c-4 417 -5
423 -84 511 -63 70 -129 94 -244 89 -96 -4 -150 -25 -219 -84 l-41 -36 0 246
c0 300 6 286 -127 286 -49 0 -96 -5 -105 -11z"/>
<path d="M12592 1474 l-22 -15 0 -668 c0 -584 2 -670 15 -681 10 -8 46 -13 97
-13 95 0 108 10 108 81 l0 44 48 -42 c74 -66 135 -93 223 -98 141 -8 237 39
315 154 61 91 87 196 87 354 0 192 -38 315 -123 400 -62 62 -112 83 -211 88
-107 5 -165 -12 -249 -74 l-60 -44 0 255 c0 241 -1 255 -19 265 -32 16 -183
13 -209 -6z m505 -621 c48 -22 80 -76 99 -164 29 -136 3 -278 -65 -349 -71
-75 -158 -65 -253 30 l-58 58 0 150 0 150 45 50 c76 85 157 111 232 75z"/>
<path d="M7218 1289 c-15 -9 -18 -26 -18 -119 l0 -109 -67 -3 c-63 -3 -68 -5
-71 -27 l-4 -24 -11 23 c-7 14 -26 28 -47 33 -45 12 -170 2 -185 -15 -7 -7
-59 -168 -116 -357 -57 -189 -105 -337 -108 -330 -3 8 -51 164 -107 347 -56
183 -104 336 -107 338 -22 22 -150 30 -209 13 -32 -8 -38 -14 -38 -37 0 -15
64 -222 142 -461 115 -349 147 -436 165 -448 29 -19 268 -22 301 -4 17 9 47
90 146 389 68 207 133 406 145 442 20 64 20 65 20 24 1 -23 6 -55 12 -73 11
-30 12 -31 75 -31 l64 0 0 -272 c0 -302 8 -357 61 -421 16 -19 50 -46 76 -59
41 -20 63 -23 153 -23 158 0 190 24 190 143 0 82 -7 89 -70 73 -71 -18 -116
-8 -140 32 -18 29 -20 52 -20 280 l0 247 105 0 c104 0 106 0 115 26 6 14 10
47 10 74 0 27 -4 60 -10 74 -9 26 -11 26 -115 26 l-105 0 0 104 c0 97 -2 106
-22 120 -26 19 -182 22 -210 5z"/>
<path d="M5494 1061 c-90 -24 -170 -64 -185 -92 -17 -33 -7 -139 16 -155 15
-11 24 -11 54 3 145 64 157 67 242 71 141 6 185 -28 191 -149 l3 -64 -130 -6
c-190 -10 -274 -34 -349 -99 -63 -56 -81 -101 -81 -205 1 -72 5 -98 22 -130
50 -95 140 -146 270 -153 101 -5 174 15 247 70 l51 39 6 -36 c3 -20 11 -41 17
-47 12 -12 136 -15 170 -4 l23 8 -3 371 c-3 364 -4 373 -26 422 -32 69 -86
121 -152 147 -80 31 -286 36 -386 9z m324 -620 c3 -84 -6 -100 -87 -152 -87
-56 -205 -32 -231 46 -20 61 5 122 63 151 36 19 125 32 202 30 l50 -1 3 -74z"/>
<path d="M8068 1065 c-148 -41 -246 -132 -299 -281 -30 -83 -37 -282 -15 -378
52 -219 199 -326 449 -326 93 0 188 20 249 51 61 31 144 115 174 174 72 149
82 357 24 522 -41 118 -139 205 -265 238 -72 18 -250 19 -317 0z m259 -211
c31 -18 49 -39 70 -81 26 -55 28 -66 28 -188 0 -114 -3 -136 -23 -180 -29 -63
-48 -84 -97 -106 -101 -46 -219 -12 -268 78 -56 104 -56 302 0 405 56 102 183
134 290 72z"/>
<path d="M10128 1061 c-75 -24 -115 -50 -172 -111 -92 -99 -131 -232 -123
-420 6 -129 21 -190 69 -270 68 -113 181 -168 364 -177 173 -9 365 33 385 84
13 35 11 126 -3 146 -12 15 -19 15 -93 -9 -107 -35 -274 -45 -340 -20 -61 24
-110 81 -124 145 -21 100 -50 91 277 91 234 0 292 3 308 14 17 13 19 27 18
128 -1 87 -5 126 -21 170 -44 119 -120 194 -235 230 -80 24 -231 24 -310 -1z
m244 -177 c48 -25 88 -102 88 -170 l0 -34 -191 0 -191 0 7 38 c10 54 38 114
68 140 55 51 149 62 219 26z"/>
<path d="M11028 1065 c-142 -39 -218 -134 -218 -272 0 -51 6 -81 24 -118 38
-81 89 -119 244 -181 107 -42 148 -72 157 -114 14 -65 -50 -120 -142 -120 -60
0 -110 13 -196 52 -85 39 -92 34 -92 -68 0 -88 7 -98 103 -136 49 -19 75 -22
187 -22 113 0 138 3 190 23 129 51 204 169 192 301 -11 126 -78 195 -259 267
-137 54 -178 85 -178 133 0 45 44 86 102 95 51 8 144 -12 208 -45 21 -11 46
-20 54 -20 21 0 29 39 24 112 -5 71 -13 80 -106 108 -75 23 -220 26 -294 5z"/>
<path d="M11802 1060 c-91 -24 -166 -64 -181 -96 -21 -47 -7 -146 24 -157 7
-3 40 7 74 23 92 44 157 60 238 60 122 0 161 -36 171 -156 l5 -61 -139 -6
c-241 -10 -358 -63 -412 -186 -21 -49 -21 -184 0 -232 25 -56 83 -114 141
-140 44 -20 68 -24 157 -24 118 0 157 13 242 78 l47 36 3 -47 3 -47 48 -7 c26
-3 68 -3 95 0 l47 7 0 381 0 380 -30 60 c-22 43 -43 68 -78 91 -69 46 -105 55
-252 59 -107 3 -143 0 -203 -16z m326 -619 c3 -72 2 -75 -30 -108 -47 -50 -98
-73 -158 -73 -89 0 -133 39 -133 119 0 96 90 142 268 137 l50 -1 3 -74z"/>
</g>
</svg>
